<svg xmlns="http://www.w3.org/2000/svg" height="506pt" version="1.1" viewBox="-32 1 506 506.537" width="506pt">
<g id="surface1">
<path d="M 11.882812 374.433594 L 221.316406 495.367188 L 430.75 374.433594 L 430.75 132.566406 L 221.316406 11.632812 L 11.882812 132.566406 C 11.882812 132.566406 11.882812 374.433594 11.882812 374.433594 Z M 221.316406 127.46875 C 290.851562 127.457031 347.242188 183.8125 347.253906 253.359375 C 347.265625 322.898438 290.910156 379.289062 221.363281 379.296875 C 151.824219 379.308594 95.433594 322.957031 95.425781 253.40625 C 95.414062 220.035156 108.652344 188.027344 132.238281 164.421875 C 155.796875 140.699219 187.871094 127.386719 221.316406 127.46875 Z M 221.316406 127.46875 " style=" stroke:none;fill-rule:nonzero;fill:rgb(29.803922%,68.235294%,80%);fill-opacity:1;" />
<path d="M 0.300781 374.433594 C 0.289062 378.59375 2.488281 382.4375 6.089844 384.511719 L 215.523438 505.445312 C 219.105469 507.519531 223.527344 507.519531 227.109375 505.445312 L 436.539062 384.511719 C 440.144531 382.4375 442.34375 378.59375 442.332031 374.433594 L 442.332031 132.566406 C 442.355469 129.484375 441.140625 126.53125 438.972656 124.339844 C 438.242188 123.625 437.433594 123 436.542969 122.488281 L 227.105469 1.554688 C 223.527344 -0.519531 219.101562 -0.519531 215.523438 1.554688 L 6.089844 122.488281 C 2.488281 124.5625 0.289062 128.40625 0.296875 132.566406 C 0.300781 132.566406 0.300781 374.433594 0.300781 374.433594 Z M 221.316406 24.953125 L 419.164062 139.167969 L 419.164062 367.714844 L 221.316406 482.046875 L 23.464844 367.714844 L 23.464844 139.285156 Z M 221.316406 24.953125 " style=" stroke:none;fill-rule:nonzero;fill:rgb(22.745098%,19.607843%,16.862745%);fill-opacity:1;" />
<path d="M 221.316406 390.996094 C 297.257812 390.976562 358.800781 329.394531 358.78125 253.464844 C 358.757812 177.523438 297.175781 115.976562 221.246094 116 C 145.304688 116.023438 83.757812 177.605469 83.78125 253.535156 C 83.792969 289.964844 98.261719 324.914062 124.011719 350.6875 C 149.761719 376.578125 184.804688 391.101562 221.316406 390.996094 Z M 140.230469 172.414062 C 184.875 127.757812 257.257812 127.746094 301.914062 172.390625 C 346.570312 217.035156 346.582031 289.421875 301.9375 334.074219 C 257.292969 378.730469 184.90625 378.742188 140.253906 334.097656 C 118.867188 312.714844 106.820312 283.734375 106.753906 253.5 C 106.613281 223.082031 118.671875 193.867188 140.230469 172.414062 Z M 140.230469 172.414062 " style=" stroke:none;fill-rule:nonzero;fill:rgb(22.745098%,19.607843%,16.862745%);fill-opacity:1;" />
</g>
</svg>