<svg height="512" viewBox="0 0 512 512" width="512" xmlns="http://www.w3.org/2000/svg"><g><g><g><path d="m496 84v292h-480v-292a19.994 19.994 0 0 1 20-20h440a19.994 19.994 0 0 1 20 20z" fill="#006df0"/><path d="m496 376v20a19.994 19.994 0 0 1 -20 20h-440a19.994 19.994 0 0 1 -20-20v-20z" fill="#e0e0e2"/><path d="m320 456h-128l8-40h112z" fill="#787680"/><path d="m352 480h-192l8-24h176z" fill="#e0e0e2"/><circle cx="256" cy="224" fill="#00d7df" r="104"/><ellipse cx="256" cy="224" fill="#78b9eb" rx="48" ry="104"/></g><circle cx="376" cy="104" fill="#91cc04" r="80"/></g><path d="m476 56h-26.28a87.933 87.933 0 0 0 -147.44 0h-266.28a28.031 28.031 0 0 0 -28 28v312a28.031 28.031 0 0 0 28 28h154.24l-4.8 24h-17.44a8 8 0 0 0 -7.59 5.47l-6.18 18.53h-34.23a8 8 0 0 0 0 16h272a8 8 0 0 0 0-16h-34.23l-6.18-18.53a8 8 0 0 0 -7.59-5.47h-17.44l-4.8-24h154.24a28.031 28.031 0 0 0 28-28v-312a28.031 28.031 0 0 0 -28-28zm-100-24a72 72 0 1 1 -72 72 72.083 72.083 0 0 1 72-72zm-31.8 154.05a94.721 94.721 0 0 1 7.48 29.95h-39.83c-.88-25.92-5.99-50.14-14.64-68.89a97.093 97.093 0 0 0 -7.11-12.87c1.29.49 2.58 1.01 3.85 1.56a88.446 88.446 0 0 0 50.25 50.25zm-48.34 45.95c-1.6 44.58-16.37 77.14-31.86 85.75v-85.75zm-31.86-16v-85.76c6.72 3.68 13.25 11.82 18.68 23.57 7.72 16.74 12.31 38.59 13.16 62.19zm33.21 84.89c8.65-18.75 13.76-42.97 14.64-68.89h39.81a96.23 96.23 0 0 1 -61.53 81.73 99.078 99.078 0 0 0 7.08-12.84zm41.02 163.11 2.67 8h-169.8l2.67-8zm-136.47-16 4.8-24h98.88l4.8 24zm286.24-52a12.01 12.01 0 0 1 -12 12h-440a12.01 12.01 0 0 1 -12-12v-12h464zm0-28h-464v-284a12.01 12.01 0 0 1 12-12h258.02a87.7 87.7 0 0 0 -6.02 32 88.8 88.8 0 0 0 .95 12.92 111.86 111.86 0 1 0 74.13 74.13 88.023 88.023 0 0 0 100.92-87.05 87.7 87.7 0 0 0 -6.02-32h18.02a12.01 12.01 0 0 1 12 12zm-287.85-136c.88 25.92 5.99 50.14 14.64 68.89a99.078 99.078 0 0 0 7.08 12.84 96.23 96.23 0 0 1 -61.53-81.73zm-39.81-16a96.23 96.23 0 0 1 61.53-81.73 99.078 99.078 0 0 0 -7.08 12.84c-8.65 18.75-13.76 42.97-14.64 68.89zm55.82 16h31.84v85.76c-6.72-3.68-13.25-11.82-18.68-23.57-7.72-16.74-12.31-38.59-13.16-62.19zm-.02-16c1.6-44.58 16.37-77.14 31.86-85.75v85.75z"/><path d="m354.343 141.657a8 8 0 0 0 10.925.364l64-56a8 8 0 1 0 -10.536-12.042l-58.368 51.072-18.707-18.708a8 8 0 0 0 -11.314 11.314z"/></g></svg>